<svg xmlns="http://www.w3.org/2000/svg" viewBox="0 0 32 32" id="business-profit">
  <rect width="6" height="12" x="2" y="18" fill="#231f20" rx="1"></rect>
  <path d="M18 11.83h-4a1 1 0 0 0-1 1v16.63a1 1 0 0 0 1 1h4a1 1 0 0 0 1-1V12.87a1 1 0 0 0-1-1.04zm11-6.22h-4a1 1 0 0 0-1 1v22.85a1 1 0 0 0 1 1h4a1 1 0 0 0 1-1V6.65a1 1 0 0 0-1-1.04zm-8-1.15a.43.43 0 0 1 0-.11 1.25 1.25 0 0 0-.09-.25.59.59 0 0 1 0-.08.92.92 0 0 0-.22-.26 1.11 1.11 0 0 0-.29-.14l-4-1a1 1 0 0 0-1.4.67 1 1 0 0 0 .73 1.25l1.47.38L2.53 13a1.05 1.05 0 0 0-.41 1.4 1 1 0 0 0 .88.55.89.89 0 0 0 .47-.12l15-8.24L18 8.47a1 1 0 0 0 .73 1.26A1 1 0 0 0 20 9l1-4.14a1.17 1.17 0 0 0 0-.4z"></path>
</svg>
