<svg xmlns="http://www.w3.org/2000/svg" id="movie-clapperboard" viewBox="0 0 32 32">
  <path d="M29.93,8.96c-.52-3.52-3.34-6.35-6.85-6.88-.48-.07-.88-.07-2.05-.07h-9.96c-1.18,0-1.57,0-2.05.07-3.51.54-6.33,3.37-6.85,6.92,0,0,0,0,0,0h0l-.04.96s-.11,2.59-.11,4.84v2.4c0,2.27,0,3.92.11,5.25.12,1.4.34,2.35.76,3.18.77,1.51,1.98,2.72,3.5,3.5.82.42,1.77.65,3.18.76,1.34.11,2.98.11,5.25.11h2.4c2.27,0,3.92,0,5.25-.11,1.4-.12,2.35-.34,3.18-.76,1.51-.77,2.72-1.98,3.5-3.5.42-.82.65-1.77.76-3.18.11-1.34.11-2.98.11-5.25v-6.2s0,0,0,0v-1.01c-.02-.46-.03-.73-.08-1.03ZM27.91,9h-8.72l4.08-4.84c2.33.56,4.18,2.46,4.64,4.84ZM11.24,9l4.27-5h5.28l-4.22,5h-5.34ZM9.31,4.05c.32-.05.63-.05,1.75-.05h1.82l-4.27,5h-4.43c.48-2.54,2.56-4.56,5.13-4.95ZM28,17.2c0,2.23,0,3.84-.1,5.09-.09,1.13-.26,1.85-.55,2.43-.58,1.14-1.49,2.04-2.62,2.62-.58.29-1.31.46-2.43.55-1.26.1-2.87.1-5.09.1h-2.4c-2.23,0-3.84,0-5.09-.1-1.13-.09-1.85-.26-2.43-.55-1.14-.58-2.04-1.49-2.62-2.62-.29-.58-.46-1.31-.55-2.43-.1-1.26-.1-2.87-.1-5.09v-2.4c0-1.37.04-2.86.07-3.8h23.93v6.2Z" style="fill:#242424"></path>
</svg>
